HIERARCHY
ROOT Hips
{
 OFFSET 0.000000 0.000000 0.000000
 CHANNELS 6 Xposition Yposition Zposition Yrotation Xrotation Zrotation
 JOINT Chest
 {
  OFFSET 0.000000 9.581000 -0.001100
  CHANNELS 3 Yrotation Xrotation Zrotation
  JOINT Chest2
  {
   OFFSET 0.000000 9.561100 0.002200
   CHANNELS 3 Yrotation Xrotation Zrotation
   JOINT Chest3
   {
    OFFSET 0.000000 9.521100 0.000000
    CHANNELS 3 Yrotation Xrotation Zrotation
    JOINT Chest4
    {
     OFFSET 0.000000 9.511400 0.000000
     CHANNELS 3 Yrotation Xrotation Zrotation
     JOINT Neck
     {
      OFFSET 0.000000 14.375100 0.000000
      CHANNELS 3 Yrotation Xrotation Zrotation
      JOINT Head
      {
       OFFSET 0.000000 8.901200 0.004600
       CHANNELS 3 Yrotation Xrotation Zrotation
       End Site
       {
        OFFSET 0.000000 16.962200 0.002400
       }
      }
     }
     JOINT RightCollar
     {
      OFFSET -2.920100 9.518800 0.000000
      CHANNELS 3 Yrotation Xrotation Zrotation
      JOINT RightShoulder
      {
       OFFSET -13.664500 0.000000 0.000000
       CHANNELS 3 Yrotation Xrotation Zrotation
       JOINT RightElbow
       {
        OFFSET 0.000000 -29.999200 0.000000
        CHANNELS 3 Yrotation Xrotation Zrotation
        JOINT RightWrist
        {
         OFFSET 0.000000 -24.253600 0.000000
         CHANNELS 3 Yrotation Xrotation Zrotation
         End Site
         {
          OFFSET 0.000000 -17.918900 0.000000
         }
        }
       }
      }
     }
     JOINT LeftCollar
     {
      OFFSET 2.920100 9.518800 0.000000
      CHANNELS 3 Yrotation Xrotation Zrotation
      JOINT LeftShoulder
      {
       OFFSET 13.664500 0.000000 0.000000
       CHANNELS 3 Yrotation Xrotation Zrotation
       JOINT LeftElbow
       {
        OFFSET 0.000000 -29.999200 0.000000
        CHANNELS 3 Yrotation Xrotation Zrotation
        JOINT LeftWrist
        {
         OFFSET 0.000000 -24.253600 0.000000
         CHANNELS 3 Yrotation Xrotation Zrotation
         End Site
         {
          OFFSET 0.000000 -17.918900 0.000000
         }
        }
       }
      }
     }
    }
   }
  }
 }
 JOINT RightHip
 {
  OFFSET -7.797300 0.005300 0.000500
  CHANNELS 3 Yrotation Xrotation Zrotation
  JOINT RightKnee
  {
   OFFSET 0.000000 -40.663400 -0.000500
   CHANNELS 3 Yrotation Xrotation Zrotation
   JOINT RightAnkle
   {
    OFFSET 0.000000 -39.523700 -0.000900
    CHANNELS 3 Yrotation Xrotation Zrotation
    JOINT RightToe
    {
     OFFSET 0.000000 -6.418000 14.485300
     CHANNELS 3 Yrotation Xrotation Zrotation
     End Site
     {
      OFFSET 0.000000 -1.465200 6.326400
     }
    }
   }
  }
 }
 JOINT LeftHip
 {
  OFFSET 7.797300 0.005300 0.000500
  CHANNELS 3 Yrotation Xrotation Zrotation
  JOINT LeftKnee
  {
   OFFSET 0.000000 -40.663400 -0.000500
   CHANNELS 3 Yrotation Xrotation Zrotation
   JOINT LeftAnkle
   {
    OFFSET 0.000000 -39.523700 -0.000900
    CHANNELS 3 Yrotation Xrotation Zrotation
    JOINT LeftToe
    {
     OFFSET 0.000000 -6.418000 14.485300
     CHANNELS 3 Yrotation Xrotation Zrotation
     End Site
     {
      OFFSET 0.000000 -1.465200 6.326400
     }
    }
   }
  }
 }
}
MOTION
Frames: 13
Frame Time: 0.008333
-23.703451 126.486163 52.444344 -179.393540 -29.923838 -3.393068 -2.253038 19.213091 0.394400 -0.268009 2.300429 0.096998 -0.454078 3.758628 0.150979 -1.948559 16.607499 0.452527 -2.763120 17.199306 0.174103 -2.892736 -7.657621 0.789236 -7.208341 -5.732696 -3.552565 3.357900 3.397415 -14.957528 113.704171 -69.816846 -72.320007 2.650420 -22.393186 -40.878588 -5.842490 -4.339948 1.465902 3.820724 -5.708369 10.720009 -58.138727 -73.770590 39.571474 -22.701211 -18.544418 31.513773 -8.402657 -51.598401 3.548179 -14.466195 70.262524 -16.939718 18.474541 12.182897 5.623801 0.000188 0.015910 0.000083 -8.209985 -50.188656 -4.885143 37.654702 66.093137 26.717686 7.876039 25.647104 10.742083 -0.087800 0.113739 -0.038971
-23.707788 126.483694 52.445321 -179.415086 -29.913581 -3.348438 -2.241760 19.213702 0.362391 -0.256101 2.318580 0.097410 -0.446167 3.777864 0.151296 -1.930728 16.615589 0.452728 -2.724419 17.090255 0.178343 -2.880224 -7.752751 0.793870 -7.228659 -5.793059 -3.517731 3.381120 3.431138 -14.969545 113.708017 -69.800387 -72.368896 2.706098 -22.413289 -40.897761 -5.887540 -4.375143 1.493783 3.859401 -5.691404 10.816601 -59.046199 -73.972614 40.361130 -22.800356 -18.472777 31.616832 -8.374758 -51.617991 3.525645 -14.484797 70.266301 -16.979436 18.481612 12.176325 5.613892 0.011500 0.028723 0.005097 -8.491859 -50.478866 -4.764314 38.261511 66.079943 27.294001 7.923717 26.481004 10.617015 -0.168545 0.104390 -0.074796
-23.708136 126.482940 52.444512 -179.409096 -29.912810 -3.337082 -2.234489 19.238641 0.355848 -0.255851 2.320696 0.095553 -0.441423 3.785607 0.150884 -1.907406 16.632010 0.452757 -2.685366 16.993809 0.176451 -2.869610 -7.837452 0.796367 -7.257993 -5.849615 -3.481981 3.447259 3.477830 -15.008188 113.790664 -69.772112 -72.507788 2.696041 -22.406809 -40.934496 -5.916312 -4.378473 1.544009 3.886405 -5.698032 10.893416 -59.983314 -74.170009 41.180772 -22.869917 -18.450983 31.745443 -8.375835 -51.623659 3.517767 -14.629477 70.273246 -17.131680 18.533905 12.150776 5.610169 0.016468 0.038798 0.007300 -8.767981 -50.733755 -4.611337 38.768679 66.077125 27.791027 7.860425 27.334659 10.419505 -0.182821 0.078977 -0.081098
-23.702361 126.482372 52.444888 -179.413267 -29.903992 -3.352018 -2.198445 19.271915 0.385270 -0.266299 2.301823 0.094629 -0.436943 3.791900 0.150351 -1.885996 16.645607 0.452179 -2.660555 16.918411 0.171348 -2.841235 -7.919772 0.785223 -7.293228 -5.893041 -3.457251 3.492678 3.495915 -15.056676 113.880574 -69.768870 -72.623202 2.688855 -22.406169 -40.964649 -5.949323 -4.407428 1.572373 3.919127 -5.668278 10.991713 -60.852191 -74.365504 41.941466 -22.908988 -18.463551 31.889368 -8.407182 -51.633356 3.560332 -14.683676 70.278607 -17.194939 18.574848 12.154430 5.615915 0.011276 0.029152 0.004998 -8.981339 -50.960599 -4.427428 39.121006 66.088894 28.183407 7.672314 28.178699 10.130615 -0.121803 0.060043 -0.054018
-23.697174 126.482293 52.445132 -179.432208 -29.896449 -3.350904 -2.170435 19.275726 0.399177 -0.261483 2.307506 0.095278 -0.433116 3.796573 0.149796 -1.868098 16.655705 0.451273 -2.634269 16.852706 0.160641 -2.810142 -7.991729 0.767782 -7.320394 -5.932221 -3.418431 3.493876 3.505809 -15.100935 113.995377 -69.751065 -72.716000 2.717391 -22.441686 -40.956167 -5.974616 -4.426742 1.597318 3.930568 -5.657972 11.033763 -61.577251 -74.500651 42.585821 -22.919791 -18.502863 32.034103 -8.429126 -51.658499 3.608351 -14.732118 70.296098 -17.264442 18.596985 12.171461 5.610745 0.018870 0.010419 0.008362 -9.074063 -51.158971 -4.280183 39.301773 66.122339 28.461343 7.450865 28.969523 9.829357 -0.069711 0.064996 -0.030919
-23.691686 126.482961 52.444671 -179.444283 -29.893885 -3.350756 -2.155067 19.276528 0.407216 -0.254876 2.314532 0.096997 -0.426174 3.800304 0.151144 -1.868691 16.654605 0.449094 -2.593361 16.803912 0.142004 -2.777374 -8.053242 0.745618 -7.332187 -5.959016 -3.366876 3.492174 3.518273 -15.168741 114.108206 -69.753863 -72.804551 2.682898 -22.448480 -40.925218 -5.965980 -4.417852 1.626061 3.927274 -5.655613 11.058934 -62.115688 -74.633492 43.054558 -22.911106 -18.561213 32.169035 -8.434141 -51.675085 3.637921 -14.811508 70.316730 -17.349603 18.569117 12.171998 5.598277 0.003578 0.002125 0.001585 -9.099986 -51.334178 -4.145330 39.329142 66.188273 28.629999 7.174726 29.727333 9.492142 0.001187 0.070120 0.000525
-23.684528 126.484619 52.442922 -179.442849 -29.900656 -3.364614 -2.140807 19.294802 0.428362 -0.252405 2.307547 0.100076 -0.423587 3.801053 0.150809 -1.869920 16.659890 0.443841 -2.552530 16.756424 0.124454 -2.742715 -8.102427 0.718879 -7.345417 -5.964120 -3.343994 3.471989 3.497814 -15.238058 114.308299 -69.850888 -72.935346 2.681888 -22.422872 -40.895680 -5.950226 -4.405937 1.649138 3.941110 -5.626152 11.127871 -62.389701 -74.780781 43.271661 -22.894240 -18.675643 32.290294 -8.451460 -51.671790 3.664177 -14.852330 70.338518 -17.394249 18.563710 12.147037 5.596325 -0.004890 0.008187 -0.002167 -9.114076 -51.490444 -3.991670 39.240282 66.289969 28.705188 6.874329 30.449340 9.139274 0.071526 0.071498 0.031725
-23.678949 126.485474 52.442327 -179.444255 -29.900492 -3.366605 -2.125731 19.297694 0.443694 -0.250354 2.302957 0.103141 -0.428636 3.800795 0.145997 -1.850571 16.669326 0.443849 -2.526746 16.711353 0.108439 -2.704178 -8.137887 0.688010 -7.371636 -5.962223 -3.321990 3.395233 3.439904 -15.346317 114.457263 -70.004806 -72.993260 2.664125 -22.434035 -40.826030 -5.945601 -4.393370 1.674751 4.000244 -5.552853 11.244787 -62.781019 -75.050455 43.559665 -22.873678 -18.717034 32.380512 -8.457085 -51.690404 3.677645 -14.861599 70.368407 -17.410325 18.566801 12.147530 5.595245 -0.002395 -0.003759 -0.001061 -9.110845 -51.653911 -3.838163 39.068642 66.420246 28.703179 6.528866 31.126427 8.749486 0.164251 0.085454 0.072867
-23.672626 126.485336 52.443224 -179.445514 -29.891252 -3.374044 -2.106214 19.283714 0.475576 -0.261196 2.305415 0.090538 -0.431079 3.801663 0.143130 -1.813521 16.648833 0.464002 -2.514096 16.699534 0.079502 -2.662060 -8.161590 0.654450 -7.402802 -5.930495 -3.317934 3.332509 3.390615 -15.422494 114.544452 -70.151082 -73.017774 2.640828 -22.450302 -40.751862 -5.947229 -4.346059 1.678891 4.050934 -5.514282 11.309969 -62.994782 -75.248529 43.697846 -22.863161 -18.765820 32.449025 -8.464866 -51.724815 3.699077 -14.877424 70.406243 -17.426493 18.540991 12.160214 5.591240 -0.006756 -0.025271 -0.002992 -9.130059 -51.825652 -3.661269 38.854548 66.564934 28.652554 6.235634 31.788259 8.411669 0.202991 0.072544 0.090038
-23.668511 126.484577 52.444529 -179.443080 -29.879837 -3.372707 -2.098112 19.269882 0.493123 -0.267542 2.305148 0.080562 -0.423951 3.795737 0.148784 -1.811517 16.642393 0.469459 -2.507498 16.698514 0.058974 -2.589241 -8.190489 0.605030 -7.410717 -5.906306 -3.313768 3.302750 3.366485 -15.461493 114.571410 -70.273887 -73.026767 2.678261 -22.444644 -40.711440 -5.926151 -4.309291 1.689777 4.104029 -5.485712 11.339554 -63.168186 -75.366917 43.802439 -22.833111 -18.828288 32.514018 -8.464777 -51.748019 3.702840 -14.863650 70.431006 -17.412250 18.491923 12.149134 5.586731 -0.022150 -0.020467 -0.009811 -9.167563 -52.000264 -3.492021 38.651456 66.707123 28.594148 5.967318 32.414527 8.115645 0.206837 0.054048 0.091719
-23.665907 126.483046 52.446685 -179.434920 -29.863270 -3.368888 -2.099208 19.251771 0.502824 -0.267593 2.304040 0.079354 -0.411690 3.783348 0.166033 -1.833751 16.648801 0.449080 -2.491288 16.692487 0.044340 -2.513678 -8.211756 0.554136 -7.410674 -5.889331 -3.302241 3.274833 3.344583 -15.499370 114.575889 -70.400022 -73.017159 2.629197 -22.474714 -40.657764 -5.890149 -4.281451 1.709451 4.166990 -5.453566 11.356406 -63.379972 -75.478011 43.932079 -22.812966 -18.870951 32.572663 -8.474262 -51.785716 3.699698 -14.819277 70.463952 -17.381548 18.517206 12.145691 5.589292 -0.006967 -0.030325 -0.003085 -9.242761 -52.179140 -3.323640 38.495062 66.837389 28.555170 5.729041 32.998920 7.868779 0.175244 0.034705 0.077687
-23.665811 126.480850 52.449632 -179.425888 -29.842379 -3.354598 -2.099975 19.229845 0.504343 -0.260308 2.297922 0.091625 -0.418918 3.784152 0.156833 -1.844459 16.645643 0.442572 -2.444505 16.676918 0.025246 -2.468168 -8.215728 0.513952 -7.409360 -5.871514 -3.292532 3.239563 3.307620 -15.527643 114.527904 -70.519683 -72.946302 2.585711 -22.501204 -40.633820 -5.852131 -4.250388 1.732605 4.237288 -5.423432 11.360577 -63.554252 -75.612573 44.077059 -22.818421 -18.908953 32.563542 -8.479017 -51.816273 3.689959 -14.767093 70.486047 -17.342004 18.466613 12.120058 5.585133 -0.016106 -0.017861 -0.007134 -9.348952 -52.359467 -3.165487 38.394054 66.950077 28.539699 5.547365 33.543926 7.689265 0.093224 0.012211 0.041313
-23.666606 126.479409 52.451400 -179.404684 -29.830958 -3.344977 -2.102657 19.220794 0.507415 -0.257118 2.295870 0.096969 -0.421864 3.782695 0.154460 -1.819074 16.631393 0.478945 -2.378324 16.659986 -0.034977 -2.491190 -8.209003 0.502984 -7.439071 -5.851919 -3.315596 3.221214 3.296747 -15.542291 114.477755 -70.611178 -72.904740 2.598343 -22.507977 -40.631730 -5.793034 -4.194626 1.769401 4.255488 -5.413978 11.306842 -63.819967 -75.694283 44.282710 -22.803711 -18.936555 32.569073 -8.499416 -51.831372 3.680303 -14.698553 70.501920 -17.293795 18.447701 12.096768 5.579502 -0.009258 -0.005799 -0.004101 -9.498754 -52.519905 -3.007077 38.340736 67.041859 28.540062 5.352321 34.045323 7.504544 0.023635 -0.000647 0.010472
